<svg xmlns="http://www.w3.org/2000/svg" version="1.1" xmlns:xlink="http://www.w3.org/1999/xlink" xmlns:svgjs="http://svgjs.dev/svgjs" viewBox="0 0 800 400"><path d="M238.5650177001953,168.60986328125C247.7369147237142,152.20627700805665,251.68907821655273,106.36771663665772,285.2017822265625,85.20179748535156C318.71448623657227,64.0358783340454,371.92823608398436,55.87144920349121,408.9685974121094,60.98654556274414C446.0089587402344,66.10164192199707,456.6098654174805,85.9880407079061,473.5426025390625,111.21076202392578C490.4753396606445,136.43348333994547,492.5979021199544,159.78176755269368,495.0672607421875,189.2376708984375C497.5366193644206,218.69357424418132,505.6771396891276,238.9387067667643,486.0986633300781,260.9865417480469C466.52018697102864,283.03437672932944,432.20328013102215,294.1136171468099,395.51568603515625,301.3453063964844C358.82809193929035,308.5769956461589,329.18386016845704,309.7518658955892,299.55157470703125,297.7578430175781C269.91928924560546,285.76382013956703,257.54259943644206,264.6995563761393,244.84304809570312,240.35874938964844C232.1434967549642,216.01794240315755,235.3303490702311,194.09865203857422,234.9775848388672,173.99102783203125C234.62482060750327,153.88340362548828,224.17638676961263,159.28251080830893,243.04933166503906,138.11659240722656C261.9222765604655,116.95067400614421,293.01943801879884,78.71449953715006,330.94171142578125,66.36771392822266C368.86398483276366,54.02092831929525,405.0074889119466,57.69805951436361,435.87445068359375,75.3363265991211C466.7414124552409,92.97459368387858,476.25111185709636,126.77429801940917,487.8923645019531,156.05381774902344C499.5336171468099,185.3333374786377,502.65171122233073,197.05231063842774,495.0672607421875,224.21524047851562C487.48281026204427,251.3781703186035,478.2541190592448,276.88490580240887,449.3273620605469,294.17041015625C420.400605061849,311.45591451009113,385.0224169921875,316.1644376627604,347.9820556640625,312.1076354980469C310.9416943359375,308.05083333333334,283.38713795979817,294.0029939778646,260.9865417480469,273.5426025390625C238.58594553629558,253.08221110026042,239.37219746907553,220.94768178304037,234.08071899414062,208.07174682617188" fill="none" stroke-width="20" stroke="hsl(19, 84%, 54%)" stroke-linecap="round" stroke-dasharray="0 0" transform="matrix(1.1025,0,0,1.1025,-2.951788978576701,-5.385756406784054)"></path><defs><linearGradient id="SvgjsLinearGradient1001"><stop stop-color="hsl(37, 99%, 67%)" offset="0"></stop><stop stop-color="hsl(22, 84%, 58%)" offset="1"></stop></linearGradient></defs></svg>